<svg width="130.000000" height="54.000000" viewBox="0 0 130 54" fill="none" xmlns="http://www.w3.org/2000/svg" xmlns:xlink="http://www.w3.org/1999/xlink">
	<desc>
			Created with Pixso.
	</desc>
	<defs>
		<filter id="filter_60_18_dd" x="0.000000" y="0.000000" width="130.000000" height="54.000000" filterUnits="userSpaceOnUse" color-interpolation-filters="sRGB">
			<feFlood flood-opacity="0" result="BackgroundImageFix"/>
			<feColorMatrix in="SourceAlpha" type="matrix" values="0 0 0 0 0 0 0 0 0 0 0 0 0 0 0 0 0 0 127 0" result="hardAlpha"/>
			<feOffset dx="0" dy="2"/>
			<feGaussianBlur stdDeviation="2"/>
			<feComposite in2="hardAlpha" operator="out" k2="-1" k3="1"/>
			<feColorMatrix type="matrix" values="0 0 0 0 0.23922 0 0 0 0 0.82353 0 0 0 0 0.8 0 0 0 0.45 0"/>
			<feBlend mode="normal" in2="BackgroundImageFix" result="effect_dropShadow_1"/>
			<feBlend mode="normal" in="SourceGraphic" in2="effect_dropShadow_1" result="shape"/>
		</filter>
	</defs>
	<g filter="url(#filter_60_18_dd)">
		<path id="Vector" d="M24.97 45.99L21.33 45.94L21.33 22.5L16.76 35.71L13.68 36.23L11.77 28.58L9.95 20.28L10.91 28.29L10.5 45.8L6 45.75C6 44.96 6.68 4.75 6.68 4.75L9.68 4.75L14.77 27.77L14.5 32.05L20.07 4.75L23.9 4.75L24.97 45.99ZM43.41 9.83L44.26 23.03L43.77 36.12L40.46 45.04L33.22 45.99L28.53 37.15L28.5 15.54C28.35 14.98 30.52 6.83 30.52 6.83L36.79 4L39.65 4.74L34.18 8.32L30.92 15.68L31.03 31.3C31.03 31.3 33.28 40.45 33.51 40.45C33.74 40.45 36.47 42.93 36.47 42.93L39.24 40.73L41.46 33.04L42.43 22.71L40.75 14.36L36.88 15.11L34.49 23.51L35.3 27.52L38.15 26.81L36.82 21.77L38.69 21.34C38.69 21.34 39.45 27.5 39.45 27.71C39.45 27.87 37.54 37.34 37.54 37.34L35.94 38.96L34.56 30.75L33.42 23.51L35.02 12.5L40.39 6.85L43.41 9.83ZM61.53 4.56L59.49 17.86L56.95 17.86L59.39 18.49L55.15 45.99L52.73 45.81L45.44 4.56L50.09 4.56L53.13 28.86L53.8 35.45L53.58 31.03L57.28 4.56L61.53 4.56L61.53 4.56ZM71.94 42.25L74.28 42.27L74.12 45.99L65.79 45.98L65.6 42.64L67.67 42.5L67.89 36.18L67.47 12.82L67.02 21.05C66.89 16.76 66.8 11.92 66.73 8.81L63.9 8.93L63.9 4.85L74.54 4.77L74.38 8.63L71.89 8.59L71.94 42.25ZM92.35 33.72C92.51 34.29 92.58 38.82 92.25 39.38C91.92 39.95 86.83 45.92 86.83 45.92L84.08 45.98L81.56 45.99L82.09 40.44L82.46 36.76L83.18 33.32L84.41 30.39L87.6 32.36L88.67 37.26L86.72 39.08L85.42 38.73L87.09 37.15L84.93 34.43L83.88 39.52L83.98 41.58L84.81 42.58L86.55 42.34L89.11 39.76L90.3 34.99L88.28 30.88L85.68 27.81L83.15 27.21L81.68 29.8L80.78 36.87C80.78 36.87 80.28 45.73 80.23 45.65L80.23 45.73L78.17 45.93C78.01 45.83 78.17 4.78 78.17 4.78L84.03 5.49L86.79 7.76L89.39 13.28L89.1 14.57L87.82 12.71C87.82 12.71 84.89 9.22 84.57 9.12C84.24 9.03 81.53 8.46 81.53 8.46L80.07 11.86L80.07 16.39L83.21 18.46L85.66 17.05L86.76 15.07L84.6 12.95L83.13 13.68L84.7 15.29L83.81 16.4L81.59 15.07L81.99 12.1L82.89 10.83L86.22 12.64L88.88 15.88L86.14 20.64L82.89 21.91L86.47 24.17L89.39 26.16C89.39 26.16 91.11 28.94 91.28 29.37C91.44 29.79 92.19 33.16 92.35 33.72L92.35 33.72ZM99.33 42.12L106.44 41.75L106.44 45.87L95.04 45.99L95.34 29.5L94.29 4.81L105.96 4.78L105.65 8.81L97.39 8.6L99.76 9.25L98.39 22.17L104.39 22.55L104.58 27.08L100.08 27.23L99.79 24.93L99.33 42.12ZM119.61 10.41L116.28 8.69L113.9 10.26L113.56 13.78L113.94 15.77C115.01 17.06 119.78 24.67 119.78 24.67L123.41 31.21C123.41 31.21 124.02 39.26 124 39.65C123.97 40.04 121.67 44.94 121.67 44.94L115.62 46L110.92 43.81L108.84 39.9L109.83 32.93L114.85 30.72L118.09 33.61L118.56 38.02L116.25 40.63L113.29 39.82L113.52 36.84L115.32 35.83L115.25 36.89L114.13 38.57L115.99 38.29L116.76 35.56L114.7 34.29L112.91 36.02L112.24 38.86L112.56 40.73L117.08 41.88L119.27 38.98L119.8 37.08L119.43 32.47L116.11 25.58L111.96 20.06L109.77 12.85L111.17 6.86L115.79 4.49L121.1 6.22L122.87 8.69L122.92 13.72L120.83 17.19L116.84 17.07L114.76 13.53L115.64 11.04L117.18 10.54L119.18 12.2L118.87 13.72L117.08 12.92L118.97 15.4L120.28 13.88L119.61 10.41Z" fill="#3DD2CC" fill-opacity="1.000000" fill-rule="nonzero"/>
	</g>
</svg>
